<svg xmlns="http://www.w3.org/2000/svg" viewBox="0 0 450 450">
  <path d="M234 128c1.648 1.748 3.294 3.498 4.938 5.25 4.133 3.939 6.737 5.286 12.29 5.24 1.476-.077 2.951-.16 4.426-.249 12.77-.766 23.541 5.549 33.096 13.572 5.676 5.244 9.446 11.026 12.25 18.188.995.002.995.002 2.01.004 6.911.02 13.821.074 20.732.148 2.578.023 5.156.037 7.735.043 3.709.009 7.417.05 11.126.097 1.15-.004 2.3-.008 3.486-.012 8.942.163 8.942.163 12.625 3.076 4.599 5.313 3.545 11.654 3.583 18.357.012 1.394.032 2.788.062 4.18.043 2.021.059 4.041.069 6.062.022 1.81.022 1.81.044 3.656-.566 4.082-1.903 6.2-4.47 9.388-3.153 2.102-3.861 2.244-7.449 2.195-.764-.005-1.528-.01-2.315-.015-.965-.018-1.93-.036-2.924-.055-1.661-.023-3.322-.045-4.983-.068-.817-.011-1.634-.022-2.476-.033-.611-.008-1.223-.016-1.853-.024-.112.598-.224 1.197-.339 1.813-3.491 18.593-7.289 37.113-11.227 55.616-.673 3.161-1.338 6.324-1.998 9.488-.813 3.897-1.637 7.792-2.469 11.684-.31 1.461-.617 2.922-.92 4.385-3.972 19.15-3.972 19.15-10.423 24.39-.544.462-1.088.923-1.648 1.399-4.567 2.833-9.079 3.477-14.371 3.493-1.266.009-2.532.017-3.836.026-1.39 0-2.78-.001-4.17-.002-1.474.006-2.948.013-4.422.02-3.994.018-7.988.023-11.982.025-2.498.002-4.997.006-7.495.011-8.725.019-17.45.027-26.175.026-8.118-.002-16.237.02-24.355.052-6.982.026-13.964.036-20.946.035-4.165 0-8.329.006-12.494.027-3.919.02-7.839.02-11.758.006-1.433-.002-2.866.003-4.3.015-9.635.076-17.362-.377-24.551-7.254-4.071-6.227-5.701-13.059-7.209-20.249-.186-.86-.372-1.722-.563-2.609-.607-2.821-1.205-5.643-1.802-8.465-.421-1.973-.843-3.945-1.265-5.916-.881-4.121-1.757-8.241-2.63-12.361-1.119-5.281-2.248-10.56-3.38-15.838-.871-4.067-1.737-8.133-2.602-12.2-.415-1.947-.831-3.894-1.248-5.841-.582-2.718-1.158-5.436-1.731-8.154-.173-.802-.346-1.604-.524-2.43-.788-3.78-1.382-7.314-1.176-11.181-1.158.058-2.315.116-3.508.176-1.539.047-3.078.093-4.617.137-.761.042-1.521.084-2.305.127-4.127.089-6.77-.146-9.063-2.771-4.88-5.191-3.729-11.722-3.748-18.437-.01-2.092-.041-4.183-.073-6.274-.006-1.337-.012-2.674-.016-4.012-.009-1.212-.019-2.423-.028-3.671.481-4.423 1.868-6.944 5.172-9.897 2.552-1.609 3.868-1.726 6.857-1.666 1.382.014 1.382.014 2.792.028 1.483.033 1.483.033 2.996.066 2.102.007 4.203.012 6.305.016 3.308.02 6.614.054 9.921.121 3.197.057 6.39.058 9.587.051.984.034 1.969.068 2.982.103 2.847-.03 5.053-.154 7.744-1.095 2.009-2.128 3.322-4.19 4.674-6.78 2.768-4.636 7.689-6.546 12.513-8.533 2.728-.667 5.017-.852 7.812-.687-.093-1.207-.093-1.207-.188-2.438-2.267-9.939-8.798-17.761-17.125-23.312C199.21 119.222 219.17 117.56 234 128z"/>
  <path d="M184 142c-3.69 4.848-6.025 9.598-7.5 15.5-.68 2.5-.68 2.5-1.5 4.5-2.625 1.5-2.625 1.5-6 2-.524.298-1.044.612-1.563.938-1.144.246-1.144.246-2.312.497-2.752.733-4.877 1.826-7.125 3.565v2c44.22 0 88.44 0 134 0-1.992-4.98-3.46-7.195-7-11-5.36-6.913-15.213-10.833-26.938-9.5-13.036 2.366-23.865 8.064-34.437 16.5-2.625 1.5-2.625 1.5-6 1.25-.866-.248-1.733-.495-2.625-.75-.33-1.65-.66-3.3-1-4.95 8.175-7.971 18.832-13.003 29-18 5.346-6.014 11.762-9.562 19.848-10.238 11.052-.255 21.194 2.105 29.152 10.238-5 7 5 7 20 14-26.84 0-58.16 0-84 0z"/>
  <path d="M99 181v25h84v-25z"/>
  <path d="M122 217c3.96 18.81 7.92 37.62 12 57 5 24.722 5 24.722 7.002 34.849 1.103 3.483 2.503 5.508 5.998 8.151 2.727 1.363 4.886 1.135 7.94 1.147 1.266.007 2.532.014 3.836.022 1.411.003 2.822.006 4.233.008 1.48.006 2.96.013 4.44.02 4.027.018 8.054.028 12.081.037 2.515.005 5.03.011 7.545.017 7.866.019 15.733.033 23.599.041 9.085.01 18.17.036 27.256.077 7.019.03 14.038.045 21.057.049 4.194.002 8.387.011 12.581.037 3.946.023 7.891.028 11.837.017 1.448 0 2.895.006 4.343.019 2.177.018 4.354.009 6.531-.013 1.107.003 2.214.005 3.353.008 3.659-.61 5.323-1.946 7.968-4.494 1.078-1.882 1.078-1.882 1.548-4.047.346-1.327.346-1.327.698-2.68.249-1.08.498-2.16.754-3.273.15-.65.301-1.301.456-1.971 1.316-5.746 2.548-11.509 3.775-17.275.399-1.862.799-3.724 1.198-5.586.832-3.882 1.662-7.765 2.489-11.647 1.061-4.98 2.128-9.959 3.198-14.937.823-3.835 1.643-7.671 2.463-11.507.393-1.837.787-3.674 1.181-5.51.549-2.558 1.093-5.117 1.637-7.675.163-.759.327-1.518.495-2.3.618-2.926 1.109-5.593 1.109-8.593h-67z"/>
  <path d="M186 232c2 .556 3.96 1.156 5.914 1.813 3.217 1.065 6.455 2 9.711 2.937 7.445 2.301 13.269 5.325 17.5 12.125 2.509 5.731 3.772 11.889 5 18 .99 0 1.98 0 3 0 .147-.834.294-1.668.445-2.528 1.657-8.31 3.501-15.791 10.641-21.001 9.03-4.965 19.772-7.179 29.914-8.481 2.595 2.487 3.261 4.516 3.375 8-.359 9.899-3.056 20.475-10 27.75-7.965 5.831-15.542 6.635-25.152 6.098-3.1-.075-3.1-.075-5.129.725-1.769 3.279-1.592 6.76-1.656 10.403-.211 9.135-.211 9.135-2.438 13.625-3.375.625-3.375.625-7 1-2.717-2.717-2.306-4.302-2.414-8.102-.058-1.818-.058-1.818-.117-3.672-.031-1.271-.062-2.542-.094-3.852-.058-1.918-.058-1.918-.118-3.875-.095-3.167-.18-6.333-.258-9.5-1.111.058-2.222.116-3.367.176-10 .368-17.446.014-25.426-6.68-5.993-6.132-8.585-15.121-9.217-23.496-.063-.681-.126-1.361-.189-2.063-.197-3.457-.055-5.549 1.812-8.5 2.375-1.438 2.375-1.438 5.25-1.313z"/>
</svg>
